<svg width="30" height="32" viewBox="0 0 30 32" fill="none" xmlns="http://www.w3.org/2000/svg">
<path d="M6.6665 27.0003C5.74984 27.0003 5.00817 27.7503 5.00817 28.667C5.00817 29.5837 5.74984 30.3337 6.6665 30.3337C7.58317 30.3337 8.33317 29.5837 8.33317 28.667C8.33317 27.7503 7.58317 27.0003 6.6665 27.0003ZM1.6665 13.667V15.3337H3.33317L6.33317 21.6587L5.20817 23.7003C5.07484 23.9337 4.99984 24.2087 4.99984 24.5003C4.99984 25.417 5.74984 26.167 6.6665 26.167H16.6665V24.5003H7.0165C6.89984 24.5003 6.80817 24.4087 6.80817 24.292L6.83317 24.192L7.58317 22.8337H13.7915C14.4165 22.8337 14.9665 22.492 15.2498 21.9753L18.2332 16.567C18.2998 16.4503 18.3332 16.3087 18.3332 16.167C18.3332 15.7087 17.9582 15.3337 17.4998 15.3337H5.17484L4.3915 13.667H1.6665ZM14.9998 27.0003C14.0832 27.0003 13.3415 27.7503 13.3415 28.667C13.3415 29.5837 14.0832 30.3337 14.9998 30.3337C15.9165 30.3337 16.6665 29.5837 16.6665 28.667C16.6665 27.7503 15.9165 27.0003 14.9998 27.0003Z" fill="#052A44"/>
<circle cx="20" cy="10" r="9" fill="#F43C64" stroke="white" stroke-width="2"/>
<path d="M21.6992 5.45117V14H20.0117V7.39648L17.9844 8.04102V6.71094L21.5176 5.45117H21.6992Z" fill="white"/>
</svg>
