<svg width="124" height="124" viewBox="0 0 124 124" fill="none" xmlns="http://www.w3.org/2000/svg">
<g id="autorenew">
<path id="Vector" d="M62.0003 31.0003V46.5003L82.667 25.8337L62.0003 5.16699V20.667C39.1637 20.667 20.667 39.1637 20.667 62.0003C20.667 70.112 23.0437 77.6553 27.0737 84.0103L34.617 76.467C32.292 72.1787 31.0003 67.2187 31.0003 62.0003C31.0003 44.8987 44.8987 31.0003 62.0003 31.0003ZM96.927 39.9903L89.3837 47.5337C91.657 51.8737 93.0003 56.782 93.0003 62.0003C93.0003 79.102 79.102 93.0003 62.0003 93.0003V77.5003L41.3337 98.167L62.0003 118.834V103.334C84.837 103.334 103.334 84.837 103.334 62.0003C103.334 53.8887 100.957 46.3453 96.927 39.9903Z" fill="#E99F00"/>
</g>
</svg>
