<svg width="124" height="124" viewBox="0 0 124 124" fill="none" xmlns="http://www.w3.org/2000/svg">
<g id="check_circle_outline">
<path id="Vector" d="M85.7147 39.163L51.6663 73.2113L33.118 54.7147L25.833 61.9997L51.6663 87.833L92.9997 46.4997L85.7147 39.163ZM61.9997 10.333C33.4797 10.333 10.333 33.4797 10.333 61.9997C10.333 90.5197 33.4797 113.666 61.9997 113.666C90.5197 113.666 113.666 90.5197 113.666 61.9997C113.666 33.4797 90.5197 10.333 61.9997 10.333ZM61.9997 103.333C39.163 103.333 20.6663 84.8363 20.6663 61.9997C20.6663 39.163 39.163 20.6663 61.9997 20.6663C84.8363 20.6663 103.333 39.163 103.333 61.9997C103.333 84.8363 84.8363 103.333 61.9997 103.333Z" fill="#3DB557"/>
</g>
</svg>
