<svg width="24" height="24" viewBox="0 0 24 24" fill="none" xmlns="http://www.w3.org/2000/svg">
<path d="M12 0.000205604C8.8174 0.000205604 5.76522 1.26444 3.51468 3.51488C1.26423 5.76533 0 8.81776 0 12.0002C0 15.1826 1.26423 18.235 3.51468 20.4855C5.76512 22.736 8.81755 24.0002 12 24.0002C15.1824 24.0002 18.2348 22.736 20.4853 20.4855C22.7358 18.2351 24 15.1826 24 12.0002C24 9.89381 23.4455 7.8244 22.3924 5.99995C21.3392 4.1758 19.8241 2.66085 18 1.60758C16.1757 0.554459 14.1065 0.000205604 12 0.000205604ZM18.8113 9.88492L11.6112 16.4848C11.3832 16.694 11.0832 16.8069 10.7741 16.8002C10.4649 16.7934 10.1702 16.6677 9.95162 16.4489L6.35157 12.8488C6.11994 12.6252 5.98795 12.3181 5.98514 11.9962C5.98232 11.6742 6.10909 11.3648 6.3365 11.1372C6.56412 10.9096 6.87368 10.783 7.19552 10.7856C7.51736 10.7885 7.82471 10.9204 8.04833 11.1521L10.8359 13.9397L17.189 8.11585C17.505 7.82616 17.9514 7.72691 18.3604 7.85569C18.7694 7.98426 19.0786 8.32136 19.1716 8.74001C19.2646 9.15848 19.1271 9.59501 18.8113 9.88492Z" fill="#6255A5"/>
</svg>
