<svg width="20" height="20" viewBox="0 0 20 20" fill="none" xmlns="http://www.w3.org/2000/svg">
<g id="shopping_cart">
<path id="Vector" d="M6.66675 14.9998C5.75008 14.9998 5.00841 15.7498 5.00841 16.6665C5.00841 17.5832 5.75008 18.3332 6.66675 18.3332C7.58342 18.3332 8.33342 17.5832 8.33342 16.6665C8.33342 15.7498 7.58342 14.9998 6.66675 14.9998ZM1.66675 1.6665V3.33317H3.33341L6.33342 9.65817L5.20841 11.6998C5.07508 11.9332 5.00008 12.2082 5.00008 12.4998C5.00008 13.4165 5.75008 14.1665 6.66675 14.1665H16.6667V12.4998H7.01675C6.90008 12.4998 6.80841 12.4082 6.80841 12.2915L6.83342 12.1915L7.58342 10.8332H13.7917C14.4167 10.8332 14.9667 10.4915 15.2501 9.97484L18.2334 4.5665C18.3001 4.44984 18.3334 4.30817 18.3334 4.1665C18.3334 3.70817 17.9584 3.33317 17.5001 3.33317H5.17508L4.39175 1.6665H1.66675ZM15.0001 14.9998C14.0834 14.9998 13.3417 15.7498 13.3417 16.6665C13.3417 17.5832 14.0834 18.3332 15.0001 18.3332C15.9167 18.3332 16.6667 17.5832 16.6667 16.6665C16.6667 15.7498 15.9167 14.9998 15.0001 14.9998Z" fill="black"/>
</g>
</svg>
